Simulation
nRows=32
nColumns=15
endheader
time  TH_x TH_y TH_z SC_y  SC_z  SC_x  AC_y  AC_z  AC_x  GH_y  GH_z  GH_yy  EL_x  PS_y
1.15  0.000000  0.000000  0.000000  -30.51372357122027  -0.3512753637547731  14.639226605343628  72.52141022165397  0.22962497704813883  -3.243532424769208  63.339128786428255  42.2356715813664  -73.42066800484154  29.219976335464846  0.000000
1.173  0.000000  0.000000  0.000000  -30.493252653788684  -0.35725533860227654  14.666156120410252  72.55261637103602  0.18485478595954344  -3.229782817384128  63.42238661619026  42.17715712374449  -73.39931387210933  29.26424736347483  0.000000
1.196  0.000000  0.000000  0.000000  -30.479195355928887  -0.35817160987483265  14.698262580097001  72.56542021836624  0.15122540868748494  -3.232115752729924  63.47307833746062  42.1363867595816  -73.36875764560149  29.288052614246375  0.000000
1.219  0.000000  0.000000  0.000000  -30.472073954261553  -0.3537316541757673  14.735600946836625  72.55991207434971  0.1302382369653206  -3.248240657284675  63.49185893617489  42.11050896103477  -73.32912557149199  29.29141096017368  0.000000
1.242  0.000000  0.000000  0.000000  -30.47130906753834  -0.34421014625527396  14.777807021121289  72.53645068317384  0.12078560307359686  -3.280025729193532  63.47706141678583  42.102277825786786  -73.27764761544147  29.273132766686068  0.000000
1.265  0.000000  0.000000  0.000000  -30.47728908595896  -0.3293573184069343  14.824830456685687  72.49511726043009  0.12405239790585101  -3.3251055228014104  63.42949501162995  42.10906762571416  -73.21377570607423  29.233519694024608  0.000000
1.288  0.000000  0.000000  0.000000  -30.48941911410948  -0.30949903024086467  14.87647807653898  72.43663455152627  0.13895110804537486  -3.385094353106507  63.347759184782475  42.13328555527288  -73.13447981094943  29.171705032863677  0.000000
1.311  0.000000  0.000000  0.000000  -30.507915659416035  -0.2843848408747306  14.932696065980489  72.36110966744907  0.1663213928200823  -3.4575586022642377  63.23282757583486  42.17246325143855  -73.03865187466461  29.088265134631385  0.000000
1.334  0.000000  0.000000  0.000000  -30.532178672554593  -0.2543847549672321  14.993413219785047  72.26958903809253  0.20508334273539588  -3.543829829016167  63.08358978833987  42.22867232878889  -72.92306230796089  28.982652437161995  0.000000
1.357  0.000000  0.000000  0.000000  -30.562329389247147  -0.21930452056749483  15.058614392682122  72.16229015898152  0.25572614430693724  -3.6414425907184254  62.90118555247844  42.299581331041864  -72.78615154177112  28.85575362151799  0.000000
1.38  0.000000  0.000000  0.000000  -30.59777748777414  -0.17958984155777452  15.128291087565005  72.04056043586547  0.317172762077598  -3.751448800492529  62.68479071595226  42.386942802515456  -72.62455489084458  28.70736100860399  0.000000
1.403  0.000000  0.000000  0.000000  -30.638537085307362  -0.13511506408723348  15.202491091951098  71.90478081532181  0.38961579660127066  -3.8713777537059637  62.43573822436358  42.48852403169  -72.43642947294121  28.538649750014194  0.000000
1.426  0.000000  0.000000  0.000000  -30.684056431967807  -0.08642309316423578  15.281230276700647  71.75658270261502  0.471985000016105  -4.002019873608607  62.15352231979317  42.605791140619495  -72.21838341587647  28.349727031337974  0.000000
1.449  0.000000  0.000000  0.000000  -30.73431171942602  -0.0334725441393368  15.364656514591351  71.59655704565643  0.564169404271075  -4.140907616980146  61.839683607033145  42.73657783380697  -71.9684419709211  28.14208304649801  0.000000
1.472  0.000000  0.000000  0.000000  -30.788815054615533  0.023091879420629277  15.452769790917083  71.42660730172227  0.6650883946957391  -4.288581787659875  61.49401247720409  42.88209958382319  -71.68330780264914  27.916144546373935  0.000000
1.4949999999999999  0.000000  0.000000  0.000000  -30.847535529641572  0.08318667055547581  15.54582963309653  71.24757583453942  0.7743938641283045  -4.442607791595576  61.11826707161489  43.040231713155585  -71.3610749528017  27.67370340202866  0.000000
1.518  0.000000  0.000000  0.000000  -30.91007055253931  0.14606328113034833  15.643796060873271  71.0616275404421  0.8910282821059177  -4.6033217060184635  60.712550368745354  43.21198018672803  -70.99868178948282  27.415518147468898  0.000000
1.541  0.000000  0.000000  0.000000  -30.97642780879899  0.21149229806085693  15.747034003120245  70.86988924820794  1.0144582182201891  -4.768328840607163  60.278839617712926  43.395281426812744  -70.59450604209778  27.143675594924805  0.000000
1.564  0.000000  0.000000  0.000000  -31.04632126147047  0.27865028500606387  15.855435259841403  70.67474431925558  1.14366781491391  -4.937763101299141  59.817597359585164  43.590993776690866  -70.14586862377207  26.859295243686155  0.000000
1.587  0.000000  0.000000  0.000000  -31.119833439867552  0.34716342826333674  15.969401479704832  70.47766688373986  1.2780188239496686  -5.109251793233044  59.33102103700273  43.79719461653411  -69.65170337701552  26.56471535990951  0.000000
1.6099999999999999  0.000000  0.000000  0.000000  -31.19677897051816  0.416213758040156  16.088750759715985  70.28115919464264  1.4165738412393203  -5.282659111907989  58.82005208211575  44.01455325313897  -69.10982171782996  26.261454498627668  0.000000
1.633  0.000000  0.000000  0.000000  -31.277303239249544  0.4852992027491277  16.213803973673546  70.08716596943088  1.5586858680539308  -5.455640766901692  58.287087836866206  44.24134602799815  -68.52004067013361  25.95202979762882  0.000000
1.656  0.000000  0.000000  0.000000  -31.36128213182317  0.5536672866306288  16.34429748986338  69.89808893418387  1.7034834476595226  -5.6276825155940475  57.73373789584489  44.47785687459953  -67.88075714560487  25.638380660002944  0.000000
1.679  0.000000  0.000000  0.000000  -31.44889082038256  0.6206786490904302  16.480322144336096  69.71645851692621  1.8503774962894182  -5.796628458030383  57.16263272671981  44.722529358645325  -67.19304504717897  25.323089842418906  0.000000
1.702  0.000000  0.000000  0.000000  -31.539940216004524  0.6856055008879922  16.621500522852667  69.54413750993167  1.998420545744815  -5.96158068929642  56.57624304409961  44.97491483388209  -66.45603381666942  25.00844643144118  0.000000
1.7249999999999999  0.000000  0.000000  0.000000  -31.63443859886891  0.7475965374906504  16.76770526129767  69.38418916071156  2.14707540054353  -6.121100049364078  55.977531781714575  45.23329471221698  -65.67239866876984  24.69696859786223  0.000000
1.748  0.000000  0.000000  0.000000  -31.732146775105914  0.8056625931162996  16.918437849101554  69.23743332684313  2.294908089303931  -6.274194072834194  55.36987005440381  45.496176781734256  -64.84240903017547  24.391233538923352  0.000000
1.771  0.000000  0.000000  0.000000  -31.832939783041738  0.8584472251452553  17.073386837424174  69.10714834144954  2.4409693651633595  -6.4209035818797  54.75643442582676  45.761574968741996  -63.97079162573171  24.09341172742028  0.000000
1.794  0.000000  0.000000  0.000000  -31.936010618579093  0.9047447060060017  17.232168883726075  68.99204301705277  2.5834438101828714  -6.560920293834354  54.14169724043097  46.02623428938828  -63.05828575846591  23.80616703313065  0.000000
1.817  0.000000  0.000000  0.000000  -32.040952836060654  0.9425597749794818  17.39465088095122  68.89524680236251  2.72050297467143  -6.69657355416778  53.52863369487535  46.28795769247352  -62.11262699473933  23.531424717754653  0.000000
1.8399999999999999  0.000000  0.000000  0.000000  -32.14661241840421  0.9701781277153049  17.5605748467708  68.81294924110546  2.8494288975502493  -6.828551938319974  52.9221289484339  46.542970139649476  -61.136032330629746  23.272124970173564  0.000000
1.863  0.000000  0.000000  0.000000  -32.252531982739896  0.9854722338398453  17.730755593718058  68.74800904875438  2.9678368994386015  -6.961675023692289  52.32507749965254  46.78986882694311  -60.13906282657009  23.03027119872782  0.000000
